<svg width="518" height="153" viewBox="0 0 518 153" fill="none" xmlns="http://www.w3.org/2000/svg">
<path d="M153.125 91.861V83.7104L160.39 82.3131V34.5269H148.048L147.303 42.631H137.009V24.0474H197.511V42.631H187.171L186.426 34.5269H173.99V82.3131L181.303 83.7104V91.861H153.125Z" fill="black"/>
<path d="M200.538 91.861V83.7104L207.059 82.3131V51.0611L199.84 49.6638V41.4666H219.727L220.24 47.7077L220.333 48.8255C221.575 46.0931 223.112 44.0282 224.944 42.631C226.776 41.2337 228.965 40.5351 231.511 40.5351C232.318 40.5351 233.203 40.6127 234.166 40.768C235.128 40.8922 235.982 41.0629 236.727 41.2803L235.283 53.809L228.53 53.4364C226.605 53.3433 225.037 53.6693 223.826 54.4145C222.646 55.1597 221.59 56.2309 220.659 57.6282V82.3131L227.179 83.7104V91.861H200.538Z" fill="black"/>
<path d="M256.708 92.8391C251.709 92.8391 247.734 91.504 244.785 88.8337C241.835 86.1323 240.36 82.4684 240.36 77.8419C240.36 73.0912 242.285 69.241 246.135 66.2912C249.986 63.3104 255.621 61.82 263.042 61.82H269.702V58.094C269.702 55.672 268.988 53.7159 267.56 52.2255C266.163 50.704 264.051 49.9433 261.226 49.9433C259.766 49.9433 258.462 50.1296 257.313 50.5022C256.165 50.8437 255.109 51.3405 254.146 51.9926L253.075 58.6529H243.294L243.108 45.5652C245.747 44.0748 248.604 42.8638 251.678 41.9323C254.752 41.0008 258.183 40.5351 261.971 40.5351C268.554 40.5351 273.755 42.0721 277.574 45.146C281.393 48.1889 283.302 52.5515 283.302 58.2337V79.0063C283.302 79.6894 283.302 80.3725 283.302 81.0556C283.334 81.7076 283.396 82.3442 283.489 82.9652L288.752 83.7104V91.861H271.892C271.55 90.9916 271.208 90.0601 270.867 89.0665C270.525 88.0729 270.277 87.0793 270.122 86.0857C268.507 88.135 266.597 89.7807 264.393 91.0227C262.219 92.2337 259.658 92.8391 256.708 92.8391ZM260.341 82.7789C262.235 82.7789 264.036 82.3597 265.744 81.5213C267.451 80.6519 268.771 79.5186 269.702 78.1213V70.157H262.996C260.015 70.157 257.748 70.8401 256.196 72.2063C254.674 73.5725 253.913 75.2181 253.913 77.1433C253.913 78.9442 254.472 80.3414 255.59 81.335C256.739 82.2976 258.323 82.7789 260.341 82.7789Z" fill="black"/>
<path d="M293.083 91.861V83.7104L299.604 82.3131V51.0611L292.385 49.6638V41.4666H312.272L312.878 48.6858C314.555 46.1086 316.619 44.1058 319.072 42.6775C321.556 41.2492 324.382 40.5351 327.549 40.5351C332.548 40.5351 336.46 42.1342 339.286 45.3323C342.112 48.5305 343.524 53.5451 343.524 60.3762V82.3131L350.045 83.7104V91.861H324.056V83.7104L329.878 82.3131V60.4227C329.878 57.0383 329.21 54.6474 327.875 53.2501C326.54 51.8218 324.553 51.1077 321.913 51.1077C319.957 51.1077 318.249 51.5268 316.79 52.3652C315.362 53.1725 314.166 54.3369 313.204 55.8583V82.3131L318.7 83.7104V91.861H293.083Z" fill="black"/>
<path d="M376.127 92.8391C372.37 92.8391 368.861 92.4821 365.601 91.7679C362.372 91.0537 359.267 90.0291 356.286 88.6939L356.146 74.4419H365.601L367.417 81.7076C368.473 82.2355 369.622 82.6547 370.864 82.9652C372.137 83.2757 373.581 83.4309 375.196 83.4309C378.238 83.4309 380.381 82.9341 381.623 81.9405C382.865 80.9469 383.486 79.7049 383.486 78.2145C383.486 76.8172 382.818 75.5907 381.483 74.535C380.179 73.4483 377.555 72.5013 373.612 71.694C367.65 70.4519 363.257 68.5268 360.431 65.9186C357.606 63.3104 356.193 59.9725 356.193 55.9049C356.193 53.1104 356.891 50.5643 358.289 48.2666C359.717 45.9689 361.875 44.1214 364.763 42.7241C367.681 41.3269 371.407 40.6282 375.941 40.6282C379.729 40.6282 383.191 41.0008 386.327 41.746C389.494 42.4602 392.149 43.4072 394.291 44.5871L394.431 58.3734H385.023L383.579 51.7597C382.741 51.1387 381.747 50.673 380.598 50.3625C379.48 50.052 378.207 49.8967 376.779 49.8967C374.388 49.8967 372.556 50.378 371.283 51.3405C370.01 52.3031 369.374 53.5451 369.374 55.0666C369.374 55.936 369.591 56.7433 370.026 57.4885C370.491 58.2337 371.392 58.9323 372.727 59.5844C374.062 60.2364 376.003 60.8574 378.549 61.4474C384.79 62.8757 389.339 64.7853 392.196 67.1761C395.052 69.536 396.48 72.8583 396.48 77.1433C396.48 81.8318 394.773 85.62 391.357 88.5076C387.973 91.3953 382.896 92.8391 376.127 92.8391Z" fill="black"/>
<path d="M435.883 92.8391C430.511 92.8391 425.776 91.9076 421.678 90.0446C417.61 88.1816 414.443 85.4802 412.176 81.9405C409.91 78.4008 408.776 74.1003 408.776 69.0392V33.6419L401.557 32.2447V24.0474H429.642V32.2447L422.376 33.6419V69.0392C422.376 72.02 422.92 74.504 424.006 76.4912C425.093 78.4784 426.646 79.9688 428.664 80.9624C430.682 81.925 433.089 82.4063 435.883 82.4063C438.74 82.4063 441.177 81.925 443.195 80.9624C445.245 79.9688 446.813 78.4784 447.9 76.4912C448.986 74.504 449.53 72.02 449.53 69.0392V33.6419L442.311 32.2447V24.0474H470.395V32.2447L463.13 33.6419V69.0392C463.13 74.1003 461.981 78.4163 459.683 81.9871C457.416 85.5268 454.234 88.2282 450.135 90.0912C446.068 91.9232 441.317 92.8391 435.883 92.8391Z" fill="black"/>
<path d="M496.757 92.8391C493 92.8391 489.491 92.4821 486.231 91.7679C483.002 91.0537 479.897 90.0291 476.916 88.6939L476.776 74.4419H486.231L488.047 81.7076C489.103 82.2355 490.252 82.6547 491.494 82.9652C492.767 83.2757 494.211 83.4309 495.826 83.4309C498.868 83.4309 501.011 82.9341 502.253 81.9405C503.495 80.9469 504.116 79.7049 504.116 78.2145C504.116 76.8172 503.448 75.5907 502.113 74.535C500.809 73.4483 498.185 72.5013 494.242 71.694C488.28 70.4519 483.887 68.5268 481.061 65.9186C478.236 63.3104 476.823 59.9725 476.823 55.9049C476.823 53.1104 477.521 50.5643 478.919 48.2666C480.347 45.9689 482.505 44.1214 485.393 42.7241C488.311 41.3269 492.037 40.6282 496.571 40.6282C500.359 40.6282 503.821 41.0008 506.957 41.746C510.124 42.4602 512.779 43.4072 514.921 44.5871L515.061 58.3734H505.653L504.209 51.7597C503.371 51.1387 502.377 50.673 501.228 50.3625C500.11 50.052 498.837 49.8967 497.409 49.8967C495.018 49.8967 493.186 50.378 491.913 51.3405C490.64 52.3031 490.004 53.5451 490.004 55.0666C490.004 55.936 490.221 56.7433 490.656 57.4885C491.121 58.2337 492.022 58.9323 493.357 59.5844C494.692 60.2364 496.633 60.8574 499.179 61.4474C505.42 62.8757 509.969 64.7853 512.826 67.1761C515.682 69.536 517.11 72.8583 517.11 77.1433C517.11 81.8318 515.403 85.62 511.987 88.5076C508.603 91.3953 503.526 92.8391 496.757 92.8391Z" fill="black"/>
<path d="M143.694 131.047V128.624L146.861 128.086V105.913H140.449L139.885 109.797H137.009V103.047H160.52V109.797H157.683L157.1 105.913H150.688V128.086L153.856 128.624V131.047H143.694Z" fill="#151515"/>
<path d="M162.386 131.047V128.624L165.553 128.086V113.22L162.386 112.682V110.24H168.972L169.303 112.894L169.342 113.259C169.938 112.195 170.669 111.362 171.537 110.759C172.418 110.156 173.422 109.855 174.549 109.855C174.951 109.855 175.359 109.894 175.773 109.97C176.201 110.035 176.505 110.099 176.686 110.163L176.181 113.682L173.519 113.528C172.509 113.464 171.66 113.695 170.974 114.22C170.287 114.733 169.756 115.426 169.381 116.297V128.086L172.548 128.624V131.047H162.386Z" fill="#151515"/>
<path d="M185.819 131.451C183.629 131.451 181.965 130.926 180.825 129.874C179.685 128.81 179.115 127.317 179.115 125.394C179.115 123.419 179.931 121.836 181.563 120.644C183.196 119.438 185.462 118.836 188.364 118.836H192.114V116.797C192.114 115.541 191.725 114.567 190.948 113.874C190.184 113.182 189.102 112.836 187.703 112.836C186.823 112.836 186.058 112.945 185.411 113.163C184.763 113.368 184.174 113.656 183.642 114.028L183.234 116.932H180.281V112.163C181.227 111.406 182.328 110.836 183.584 110.451C184.841 110.054 186.233 109.855 187.762 109.855C190.314 109.855 192.315 110.458 193.766 111.663C195.216 112.868 195.942 114.592 195.942 116.836V126.855C195.942 127.124 195.942 127.387 195.942 127.644C195.955 127.9 195.974 128.156 196 128.413L198.04 128.624V131.047H192.542C192.425 130.483 192.334 129.977 192.269 129.528C192.205 129.079 192.159 128.631 192.133 128.182C191.395 129.118 190.469 129.9 189.355 130.528C188.254 131.144 187.075 131.451 185.819 131.451ZM186.382 128.278C187.652 128.278 188.811 127.977 189.86 127.374C190.909 126.772 191.661 126.047 192.114 125.201V121.432H188.228C186.466 121.432 185.145 121.849 184.264 122.682C183.383 123.515 182.943 124.445 182.943 125.47C182.943 126.381 183.228 127.079 183.798 127.567C184.368 128.041 185.229 128.278 186.382 128.278Z" fill="#151515"/>
<path d="M201.013 131.047V128.624L204.18 128.086V113.22L201.013 112.682V110.24H207.6L207.872 113.336C208.572 112.233 209.446 111.381 210.495 110.778C211.557 110.163 212.762 109.855 214.109 109.855C216.376 109.855 218.131 110.515 219.375 111.836C220.618 113.144 221.24 115.169 221.24 117.913V128.086L224.407 128.624V131.047H214.245V128.624L217.412 128.086V117.99C217.412 116.156 217.043 114.855 216.305 114.086C215.579 113.317 214.465 112.932 212.963 112.932C211.862 112.932 210.884 113.195 210.029 113.72C209.187 114.246 208.513 114.964 208.008 115.874V128.086L211.175 128.624V131.047H201.013Z" fill="#151515"/>
<path d="M235.638 131.451C234.226 131.451 232.905 131.31 231.674 131.028C230.444 130.746 229.135 130.31 227.749 129.72L227.711 124.778H230.606L231.325 127.759C232.05 128.054 232.749 128.272 233.423 128.413C234.11 128.541 234.848 128.605 235.638 128.605C237.193 128.605 238.307 128.31 238.98 127.72C239.654 127.131 239.991 126.4 239.991 125.528C239.991 124.708 239.647 124.015 238.961 123.451C238.287 122.874 237.057 122.387 235.269 121.99C232.73 121.413 230.858 120.644 229.654 119.682C228.462 118.708 227.866 117.413 227.866 115.797C227.866 114.669 228.196 113.663 228.857 112.778C229.518 111.881 230.437 111.169 231.616 110.644C232.795 110.118 234.168 109.855 235.735 109.855C237.329 109.855 238.689 110.035 239.816 110.394C240.956 110.753 241.947 111.233 242.788 111.836L242.983 116.586H240.107L239.485 113.817C239.032 113.483 238.494 113.227 237.873 113.047C237.251 112.868 236.538 112.778 235.735 112.778C234.544 112.778 233.572 113.054 232.821 113.605C232.082 114.156 231.713 114.849 231.713 115.682C231.713 116.169 231.817 116.592 232.024 116.951C232.244 117.31 232.659 117.637 233.268 117.932C233.876 118.214 234.77 118.496 235.949 118.778C238.877 119.458 240.917 120.323 242.07 121.374C243.235 122.426 243.818 123.72 243.818 125.259C243.818 127.015 243.158 128.49 241.836 129.682C240.528 130.862 238.462 131.451 235.638 131.451Z" fill="#151515"/>
<path d="M246.403 139.047V136.605L249.375 136.067V113.22L246.208 112.682V110.24H252.659L253.009 112.778C253.708 111.829 254.557 111.105 255.554 110.605C256.565 110.105 257.73 109.855 259.052 109.855C260.788 109.855 262.271 110.323 263.501 111.259C264.732 112.182 265.671 113.483 266.319 115.163C266.966 116.829 267.29 118.785 267.29 121.028V121.432C267.29 123.432 266.96 125.182 266.299 126.682C265.652 128.182 264.719 129.355 263.501 130.201C262.284 131.035 260.82 131.451 259.11 131.451C257.815 131.451 256.675 131.24 255.69 130.817C254.719 130.381 253.89 129.74 253.203 128.894V136.067L256.545 136.605V139.047H246.403ZM257.925 128.49C259.738 128.49 261.111 127.836 262.044 126.528C262.977 125.22 263.443 123.522 263.443 121.432V121.028C263.443 119.438 263.236 118.041 262.821 116.836C262.407 115.618 261.785 114.663 260.956 113.97C260.14 113.278 259.116 112.932 257.886 112.932C256.798 112.932 255.865 113.176 255.088 113.663C254.311 114.15 253.682 114.817 253.203 115.663V125.797C253.682 126.656 254.304 127.323 255.068 127.797C255.846 128.259 256.798 128.49 257.925 128.49Z" fill="#151515"/>
<path d="M280.542 131.451C278.599 131.451 276.921 131.003 275.509 130.105C274.11 129.195 273.029 127.945 272.264 126.355C271.5 124.753 271.118 122.926 271.118 120.874V120.451C271.118 118.4 271.5 116.579 272.264 114.99C273.029 113.387 274.11 112.131 275.509 111.22C276.921 110.31 278.586 109.855 280.503 109.855C282.446 109.855 284.117 110.31 285.516 111.22C286.928 112.131 288.016 113.381 288.78 114.97C289.544 116.56 289.927 118.387 289.927 120.451V120.874C289.927 122.938 289.544 124.772 288.78 126.374C288.016 127.964 286.934 129.208 285.535 130.105C284.136 131.003 282.472 131.451 280.542 131.451ZM280.542 128.49C281.759 128.49 282.776 128.163 283.592 127.509C284.421 126.842 285.043 125.938 285.458 124.797C285.885 123.644 286.099 122.336 286.099 120.874V120.451C286.099 118.99 285.885 117.688 285.458 116.547C285.043 115.394 284.421 114.49 283.592 113.836C282.763 113.169 281.733 112.836 280.503 112.836C279.285 112.836 278.262 113.169 277.433 113.836C276.604 114.49 275.982 115.394 275.568 116.547C275.153 117.688 274.946 118.99 274.946 120.451V120.874C274.946 122.336 275.153 123.644 275.568 124.797C275.982 125.938 276.604 126.842 277.433 127.509C278.275 128.163 279.311 128.49 280.542 128.49Z" fill="#151515"/>
<path d="M292.841 131.047V128.624L296.008 128.086V113.22L292.841 112.682V110.24H299.428L299.758 112.894L299.797 113.259C300.393 112.195 301.125 111.362 301.993 110.759C302.874 110.156 303.878 109.855 305.005 109.855C305.406 109.855 305.814 109.894 306.229 109.97C306.656 110.035 306.961 110.099 307.142 110.163L306.637 113.682L303.975 113.528C302.964 113.464 302.116 113.695 301.429 114.22C300.743 114.733 300.212 115.426 299.836 116.297V128.086L303.003 128.624V131.047H292.841Z" fill="#151515"/>
<path d="M317.518 131.374C315.963 131.374 314.726 130.926 313.807 130.028C312.9 129.118 312.446 127.669 312.446 125.682V113.047H309.124V110.24H312.446V105.22H316.274V110.24H320.84V113.047H316.274V125.682C316.274 126.682 316.475 127.419 316.877 127.894C317.278 128.368 317.816 128.605 318.489 128.605C318.943 128.605 319.448 128.567 320.005 128.49C320.562 128.4 320.996 128.323 321.307 128.259L321.831 130.74C321.274 130.906 320.588 131.054 319.772 131.182C318.969 131.31 318.217 131.374 317.518 131.374Z" fill="#151515"/>
<path d="M334.325 131.047V128.624L337.492 128.086V106.028L334.325 105.49V103.047H355.601V109.778H352.531L352.104 105.99H341.32V115.682H351.676V118.663H341.32V128.086L344.487 128.624V131.047H334.325Z" fill="#151515"/>
<path d="M366.346 131.451C364.403 131.451 362.726 131.003 361.314 130.105C359.915 129.195 358.833 127.945 358.069 126.355C357.305 124.753 356.923 122.926 356.923 120.874V120.451C356.923 118.4 357.305 116.579 358.069 114.99C358.833 113.387 359.915 112.131 361.314 111.22C362.726 110.31 364.39 109.855 366.307 109.855C368.25 109.855 369.921 110.31 371.32 111.22C372.732 112.131 373.821 113.381 374.585 114.97C375.349 116.56 375.731 118.387 375.731 120.451V120.874C375.731 122.938 375.349 124.772 374.585 126.374C373.821 127.964 372.739 129.208 371.34 130.105C369.941 131.003 368.276 131.451 366.346 131.451ZM366.346 128.49C367.564 128.49 368.581 128.163 369.397 127.509C370.226 126.842 370.848 125.938 371.262 124.797C371.69 123.644 371.903 122.336 371.903 120.874V120.451C371.903 118.99 371.69 117.688 371.262 116.547C370.848 115.394 370.226 114.49 369.397 113.836C368.568 113.169 367.538 112.836 366.307 112.836C365.09 112.836 364.066 113.169 363.237 113.836C362.408 114.49 361.787 115.394 361.372 116.547C360.958 117.688 360.75 118.99 360.75 120.451V120.874C360.75 122.336 360.958 123.644 361.372 124.797C361.787 125.938 362.408 126.842 363.237 127.509C364.079 128.163 365.116 128.49 366.346 128.49Z" fill="#151515"/>
<path d="M378.646 131.047V128.624L381.813 128.086V113.22L378.646 112.682V110.24H385.233L385.563 112.894L385.602 113.259C386.198 112.195 386.93 111.362 387.797 110.759C388.678 110.156 389.682 109.855 390.809 109.855C391.211 109.855 391.619 109.894 392.033 109.97C392.461 110.035 392.765 110.099 392.947 110.163L392.441 113.682L389.779 113.528C388.769 113.464 387.921 113.695 387.234 114.22C386.547 114.733 386.016 115.426 385.641 116.297V128.086L388.808 128.624V131.047H378.646Z" fill="#151515"/>
<path d="M418.42 131.451C416.477 131.451 414.741 131.073 413.212 130.317C411.684 129.56 410.479 128.483 409.598 127.086C408.717 125.676 408.277 123.99 408.277 122.028V106.028L405.11 105.49V103.047H415.272V105.49L412.105 106.028V122.028C412.105 123.426 412.37 124.599 412.902 125.547C413.446 126.496 414.197 127.214 415.155 127.701C416.114 128.176 417.222 128.413 418.478 128.413C419.747 128.413 420.868 128.176 421.839 127.701C422.824 127.227 423.588 126.515 424.132 125.567C424.689 124.618 424.968 123.438 424.968 122.028V106.028L421.801 105.49V103.047H431.963V105.49L428.796 106.028V122.028C428.796 124.054 428.362 125.772 427.494 127.182C426.639 128.579 425.434 129.644 423.88 130.374C422.325 131.092 420.505 131.451 418.42 131.451Z" fill="#151515"/>
<path d="M443.271 131.451C441.859 131.451 440.538 131.31 439.307 131.028C438.077 130.746 436.769 130.31 435.382 129.72L435.344 124.778H438.239L438.958 127.759C439.683 128.054 440.383 128.272 441.056 128.413C441.743 128.541 442.481 128.605 443.271 128.605C444.826 128.605 445.94 128.31 446.613 127.72C447.287 127.131 447.624 126.4 447.624 125.528C447.624 124.708 447.28 124.015 446.594 123.451C445.92 122.874 444.69 122.387 442.902 121.99C440.363 121.413 438.491 120.644 437.287 119.682C436.095 118.708 435.499 117.413 435.499 115.797C435.499 114.669 435.829 113.663 436.49 112.778C437.151 111.881 438.07 111.169 439.249 110.644C440.428 110.118 441.801 109.855 443.368 109.855C444.962 109.855 446.322 110.035 447.449 110.394C448.589 110.753 449.58 111.233 450.422 111.836L450.616 116.586H447.74L447.118 113.817C446.665 113.483 446.127 113.227 445.506 113.047C444.884 112.868 444.171 112.778 443.368 112.778C442.177 112.778 441.205 113.054 440.454 113.605C439.715 114.156 439.346 114.849 439.346 115.682C439.346 116.169 439.45 116.592 439.657 116.951C439.877 117.31 440.292 117.637 440.901 117.932C441.51 118.214 442.403 118.496 443.582 118.778C446.51 119.458 448.55 120.323 449.703 121.374C450.868 122.426 451.451 123.72 451.451 125.259C451.451 127.015 450.791 128.49 449.469 129.682C448.161 130.862 446.095 131.451 443.271 131.451Z" fill="#151515"/>
<path d="M464.45 131.047V128.624L466.549 128.336L476.439 103.047H479.723L489.438 128.336L491.517 128.624V131.047H483.395V128.624L485.532 128.259L483.667 123.105H472.339L470.415 128.259L472.553 128.624V131.047H464.45ZM473.524 119.932H482.501L478.343 108.547L478.11 107.913H477.993L477.76 108.547L473.524 119.932Z" fill="#151515"/>
<path d="M494.14 131.047V128.624L497.307 128.086V104.028L494.14 103.49V101.047H501.135V128.086L504.302 128.624V131.047H494.14Z" fill="#151515"/>
<path d="M506.847 131.047V128.624L510.015 128.086V104.028L506.847 103.49V101.047H513.842V128.086L517.009 128.624V131.047H506.847Z" fill="#151515"/>
<path d="M67.5714 63.6178C67.9127 59.9012 64.2435 56.7156 61.001 56.6682C60.0755 56.6568 59.1571 56.83 58.2992 57.1775C57.4414 57.525 56.6614 58.0399 56.0047 58.6921C55.348 59.3444 54.8279 60.1209 54.4746 60.9764C54.1213 61.8319 53.942 62.7491 53.9471 63.6747C53.9746 65.4569 54.6732 67.1633 55.9033 68.4532C57.1335 69.7432 58.8049 70.5218 60.5838 70.6337C64.1866 70.8044 67.9696 67.2869 67.5714 63.6178ZM60.9346 65.5898C60.4406 65.5626 59.974 65.354 59.6241 65.0042C59.2742 64.6543 59.0657 64.1877 59.0384 63.6936C59.031 63.4446 59.0726 63.1966 59.161 62.9637C59.2494 62.7307 59.3828 62.5175 59.5536 62.3361C59.7244 62.1548 59.9292 62.0088 60.1564 61.9066C60.3836 61.8045 60.6287 61.748 60.8778 61.7405C61.1268 61.7331 61.3748 61.7747 61.6077 61.8631C61.8407 61.9515 62.0539 62.0849 62.2352 62.2557C62.4166 62.4265 62.5625 62.6313 62.6647 62.8585C62.7669 63.0857 62.8234 63.3309 62.8309 63.5799C62.8101 64.0963 62.6026 64.5876 62.2468 64.9625C61.8911 65.3374 61.4113 65.5705 60.8967 65.6183L60.9346 65.5898Z" fill="white"/>
<path d="M47.6991 72.5015C42.4845 69.3727 35.7909 69.8468 33.2879 72.8997C35.0026 76.9778 37.6017 80.6243 40.8973 83.5756C44.1929 86.5269 48.1029 88.7094 52.3448 89.9656C55.739 84.1821 53.5868 76.0474 47.6991 72.5015Z" fill="white"/>
<path d="M70.6432 75.4501C66.9266 79.8493 66.5853 86.0784 69.4202 89.9466C73.6732 88.6373 77.5815 86.3976 80.8613 83.39C84.1411 80.3824 86.7102 76.6824 88.3822 72.5584C82.1722 68.9841 75.4406 69.752 70.6432 75.4501Z" fill="white"/>
<path d="M71.6482 33.6103C68.6572 32.3475 65.467 31.6221 62.2241 31.4676C57.2749 31.338 52.3703 32.4322 47.9456 34.6532C43.4489 36.7825 39.5183 39.9432 36.4736 43.8783C33.793 47.2157 32.2041 51.297 31.9227 55.5684C31.9227 56.1562 31.9701 56.9147 32.8708 56.9147C35.4227 57.0427 37.9795 57.0427 40.5314 56.9147C45.6824 56.3564 50.4739 54.0076 54.0704 50.278C55.7414 48.6723 57.9329 47.7194 60.2468 47.5924C62.5608 47.4654 64.8434 48.1727 66.6801 49.5858C68.0454 50.5339 69.2021 51.8613 70.5579 52.8663C73.3979 55.0103 76.7664 56.3439 80.3044 56.725C83.4587 56.9715 86.6257 57.0127 89.7854 56.8483L89.6432 56.488C89.7013 55.8573 89.7013 55.2225 89.6432 54.5918C88.8053 49.8611 86.642 45.4655 83.4047 41.9157C80.1765 38.2802 76.1535 35.4381 71.6482 33.6103Z" fill="white"/>
<path d="M61.6647 18.1278C37.014 17.6347 17.4641 37.5259 17.8528 62.1766C17.7201 85.2819 36.7295 103.969 59.5694 104.614C85.1682 105.334 103.277 84.7984 103.865 62.4232C104.025 56.7381 103.058 51.0775 101.02 45.7679C98.9817 40.4583 95.9127 35.6047 91.9897 31.4869C88.0667 27.3691 83.3673 24.0686 78.1626 21.7758C72.9579 19.483 67.3509 18.2431 61.6647 18.1278ZM99.5225 63.4471C98.6502 82.9212 82.229 100.508 60.745 100.262C39.6687 100.584 21.6926 82.8548 21.977 60.764C22.0386 55.5942 23.1326 50.4889 25.1948 45.7478C27.2569 41.0067 30.2457 36.7255 33.9855 33.1557C37.7253 29.5858 42.1408 26.7992 46.9726 24.9597C51.8044 23.1201 56.9551 22.2645 62.1221 22.4433C67.2891 22.6221 72.3684 23.8316 77.0614 26.0008C81.7545 28.1699 85.9668 31.255 89.451 35.0748C92.9351 38.8946 95.6208 43.3722 97.3503 48.2444C99.0799 53.1167 99.8184 58.2855 99.5225 63.4471Z" fill="white"/>
<path d="M121.092 54.5255C120.842 48.6741 119.614 42.9058 117.461 37.4596C115.643 32.4396 112.985 27.7652 109.601 23.6362C106.706 20.3288 103.609 17.2036 100.328 14.2785C96.6215 11.0287 92.4434 8.35948 87.9366 6.36178C82.7932 3.82363 77.3002 2.06614 71.6387 1.14721C68.7944 0.730046 65.9501 0.521463 63.1722 0.199108C63.0427 0.151331 62.9212 0.0841942 62.8119 0H57.8059C57.464 0.0937226 57.1153 0.160303 56.763 0.199108C52.0277 0.38674 47.3367 1.18663 42.8069 2.57884C37.3758 4.19888 32.2225 6.63488 27.5235 9.8034C25.5274 11.167 23.6267 12.6653 21.8348 14.2879C19.9797 15.8791 18.252 17.6131 16.6677 19.4741C14.2151 22.3806 11.9448 25.4362 9.86976 28.6233C6.60013 33.838 4.04885 39.4699 2.28493 45.3668C1.24202 48.7799 -0.018965 52.1647 0.189618 55.8433C0.189618 55.9571 0.0663673 56.0804 0 56.2036V61.8922C0.0945189 62.2017 0.161158 62.519 0.199108 62.8403C0.441512 67.904 1.27518 72.9219 2.68314 77.7919C4.54368 84.4467 7.17511 90.8614 10.524 96.9057C13.4666 102.381 16.8465 107.609 20.6307 112.54C23.159 115.858 25.7537 119.129 28.4147 122.353C29.8179 124.069 31.3538 125.681 32.8708 127.292C36.009 130.611 39.1188 133.929 42.3518 137.191C45.1961 140.035 48.0973 142.737 51.0459 145.439C53.3119 147.515 55.6727 149.478 57.986 151.497C58.1717 151.683 58.3428 151.883 58.498 152.095H62.8214C64.1771 150.862 65.514 149.611 66.8982 148.407C68.2824 147.203 70.0269 145.837 71.487 144.453C75.4406 140.718 79.4606 137.039 83.2245 133.076C86.9885 129.113 90.8758 124.903 94.3743 120.551C98.2236 115.811 101.836 110.786 105.325 105.733C107.29 102.751 109.097 99.669 110.739 96.498C113.733 91.0597 116.145 85.3203 117.935 79.3753C119.226 75.3428 120.13 71.1967 120.637 66.993C120.817 65.239 120.94 63.485 121.101 61.731C121.143 61.5638 121.21 61.4039 121.3 61.257V55.5684C121.203 55.2268 121.134 54.8781 121.092 54.5255ZM103.846 62.4232C103.258 84.7984 85.1302 105.334 59.5504 104.614C36.7295 103.969 17.7201 85.2819 17.8338 62.1766C17.4451 37.5259 36.9571 17.6158 61.6457 18.1278C67.3319 18.2431 72.939 19.483 78.1437 21.7758C83.3484 24.0686 88.0477 27.3691 91.9707 31.4869C95.8937 35.6047 98.9627 40.4583 101.001 45.7679C103.039 51.0775 104.006 56.7381 103.846 62.4232Z" fill="#F2CF1D"/>
<path d="M63.2196 22.4606C57.9699 22.1501 52.7117 22.9065 47.7624 24.6841C42.8131 26.4617 38.2752 29.2236 34.4227 32.8032C30.5702 36.3828 27.4829 40.7059 25.3471 45.5115C23.2113 50.3171 22.0714 55.5057 21.996 60.764C21.7116 82.8548 39.6876 100.584 60.764 100.262C82.248 100.508 98.6881 82.9212 99.5414 63.4471C100.093 53.2118 96.5901 43.1712 89.7918 35.4998C82.9935 27.8285 73.447 23.1439 63.2196 22.4606ZM52.3448 89.9656C48.1029 88.7095 44.1929 86.5269 40.8973 83.5756C37.6017 80.6243 35.0026 76.9779 33.2879 72.8997C35.7909 69.8468 42.4845 69.3728 47.6991 72.5015C53.5868 76.0474 55.739 84.1821 52.3448 89.9656ZM60.5838 70.6337C58.8049 70.5218 57.1335 69.7432 55.9033 68.4532C54.6732 67.1633 53.9746 65.4569 53.9471 63.6747C53.942 62.7491 54.1213 61.8319 54.4746 60.9764C54.8279 60.1209 55.348 59.3444 56.0047 58.6921C56.6614 58.0399 57.4414 57.525 58.2992 57.1775C59.1571 56.83 60.0755 56.6568 61.001 56.6682C64.2435 56.7156 67.9127 59.9012 67.5714 63.6178C67.9696 67.2869 64.1866 70.8044 60.5838 70.6337ZM69.4202 89.9466C66.5758 86.0784 66.9266 79.8493 70.6432 75.4501C75.4406 69.7615 82.1721 68.9841 88.4202 72.5584C86.7442 76.6864 84.1693 80.389 80.8826 83.3969C77.596 86.4047 73.6802 88.6422 69.4202 89.9466ZM89.6432 56.4786L89.7854 56.8388C86.6257 57.0033 83.4587 56.9621 80.3044 56.7156C76.7664 56.3345 73.3979 55.0009 70.5579 52.8568C69.2021 51.8518 68.0454 50.5719 66.6801 49.5764C64.8434 48.1633 62.5608 47.456 60.2468 47.583C57.9329 47.71 55.7414 48.6628 54.0704 50.2685C50.4739 53.9981 45.6824 56.3469 40.5314 56.9052C37.9795 57.0332 35.4227 57.0332 32.8708 56.9052C31.9227 56.9052 31.8468 56.1467 31.9227 55.5589C32.2041 51.2875 33.793 47.2062 36.4736 43.8688C39.5183 39.9338 43.4489 36.773 47.9456 34.6437C52.3728 32.4326 57.2773 31.3481 62.2241 31.4865C65.467 31.6411 68.6572 32.3665 71.6482 33.6293C76.1516 35.4516 80.1745 38.2871 83.4047 41.9157C86.6455 45.4643 88.8121 49.8601 89.6527 54.5918C89.7071 55.2197 89.7039 55.8513 89.6432 56.4786Z" fill="black"/>
<path d="M60.8398 61.8259C60.3597 61.8742 59.9124 62.0913 59.5773 62.4386C59.2422 62.7858 59.0412 63.2406 59.01 63.7221C59.0372 64.2161 59.2458 64.6828 59.5956 65.0326C59.9455 65.3825 60.4121 65.591 60.9062 65.6183C61.4063 65.5633 61.8709 65.3334 62.2179 64.969C62.5648 64.6047 62.7719 64.1295 62.8024 63.6273C62.7439 63.1423 62.5139 62.6942 62.1541 62.3639C61.7942 62.0335 61.328 61.8427 60.8398 61.8259Z" fill="black"/>
</svg>
